<?xml version="1.0" encoding="UTF-8"?><svg id="_イヤー_2" xmlns="http://www.w3.org/2000/svg" viewBox="0 0 2300 421.82"><defs><style>.cls-1{fill:#fff;}</style></defs><g id="_イヤー_1-2"><g><path class="cls-1" d="M313.43,138.16h-43.87c-3.3,0-5.74-3.11-4.89-6.3,3.44-12.96,4.48-26.89,2.52-41.32C260.51,41.21,218.79,2.88,169.08,.16,108.42-3.15,58.2,45.05,58.2,104.99c0,9.33,1.23,18.37,3.53,26.98,.84,3.14-1.59,6.2-4.84,6.2H12.94C5.79,138.16,0,143.96,0,151.1v104.47c0,89.11,70.16,164.09,159.25,166.2,91.77,2.17,167.12-71.85,167.12-163.14v-107.53c0-7.15-5.79-12.94-12.94-12.94Zm-112.84-66.71c7.64,0,14.34,4.5,18.15,11.27,.55,.97-.59,2.02-1.52,1.41-1.77-1.17-3.82-1.84-6.02-1.84-6.59,0-11.92,6.03-11.92,13.47s5.34,13.47,11.92,13.47c2.2,0,4.25-.67,6.02-1.84,.93-.62,2.07,.43,1.52,1.41-3.82,6.78-10.51,11.27-18.15,11.27-11.88,0-21.52-10.88-21.52-24.31s9.63-24.31,21.52-24.31Zm-74.81,0c7.64,0,14.34,4.5,18.15,11.27,.55,.97-.59,2.02-1.52,1.41-1.77-1.17-3.82-1.84-6.02-1.84-6.59,0-11.92,6.03-11.92,13.47s5.34,13.47,11.92,13.47c2.2,0,4.25-.67,6.02-1.84,.93-.62,2.07,.43,1.52,1.41-3.82,6.78-10.51,11.27-18.15,11.27-11.88,0-21.52-10.88-21.52-24.31s9.63-24.31,21.52-24.31Zm130.09,191.1c0,51.59-42.36,93.47-94.13,92.67-50.86-.78-91.25-43.22-91.25-94.08v-52.37c0-2.24,1.81-4.05,4.05-4.05H251.82c2.24,0,4.05,1.81,4.05,4.05v53.77Z"/><g><g><path class="cls-1" d="M780.16,205.02v-31.81c0-6.97,5.65-12.63,12.63-12.63h47.21c6.97,0,12.63,5.65,12.63,12.63v31.81c0,6.97-5.65,12.63-12.63,12.63h-47.21c-6.97,0-12.63-5.65-12.63-12.63Zm0,149.22v-112.35c0-6.97,5.65-12.63,12.63-12.63h47.21c6.97,0,12.63,5.65,12.63,12.63v112.35c0,6.97-5.65,12.63-12.63,12.63h-47.21c-6.97,0-12.63-5.65-12.63-12.63Z"/><path class="cls-1" d="M680.08,213.1c-42.46,0-76.88,34.42-76.88,76.88s34.42,76.88,76.88,76.88,76.88-34.42,76.88-76.88-34.42-76.88-76.88-76.88Zm0,89.81c-7.14,0-12.92-5.79-12.92-12.92s5.79-12.92,12.92-12.92,12.92,5.79,12.92,12.92-5.79,12.92-12.92,12.92Z"/><path class="cls-1" d="M501.16,160.58h-88.28c-6.97,0-12.63,5.65-12.63,12.63v180.78c0,6.97,5.65,12.63,12.63,12.63h49.74c6.97,0,12.63-5.65,12.63-12.63v-13.61c0-6.97,5.65-12.63,12.63-12.63h15.65c47.5,0,85.75-39.62,83.49-87.62-2.12-44.96-40.84-79.54-85.85-79.54Zm2.36,99.91c-9.02,0-16.33-7.31-16.33-16.33s7.31-16.33,16.33-16.33,16.33,7.31,16.33,16.33-7.31,16.33-16.33,16.33Z"/><path class="cls-1" d="M1261.82,205.02v-31.81c0-6.97,5.65-12.63,12.63-12.63h47.21c6.97,0,12.63,5.65,12.63,12.63v31.81c0,6.97-5.65,12.63-12.63,12.63h-47.21c-6.97,0-12.63-5.65-12.63-12.63Zm0,149.22v-112.35c0-6.97,5.65-12.63,12.63-12.63h47.21c6.97,0,12.63,5.65,12.63,12.63v112.35c0,6.97-5.65,12.63-12.63,12.63h-47.21c-6.97,0-12.63-5.65-12.63-12.63Z"/><path class="cls-1" d="M1161.74,213.1c-42.46,0-76.88,34.42-76.88,76.88s34.42,76.88,76.88,76.88,76.88-34.42,76.88-76.88-34.42-76.88-76.88-76.88Zm0,89.81c-7.14,0-12.92-5.79-12.92-12.92s5.79-12.92,12.92-12.92,12.92,5.79,12.92,12.92-5.79,12.92-12.92,12.92Z"/><path class="cls-1" d="M982.83,160.58h-88.28c-6.97,0-12.63,5.65-12.63,12.63v180.78c0,6.97,5.65,12.63,12.63,12.63h49.74c6.97,0,12.63-5.65,12.63-12.63v-13.61c0-6.97,5.65-12.63,12.63-12.63h15.65c47.5,0,85.75-39.62,83.49-87.62-2.12-44.96-40.84-79.54-85.85-79.54Zm2.36,99.91c-9.02,0-16.33-7.31-16.33-16.33s7.31-16.33,16.33-16.33,16.33,7.31,16.33,16.33-7.31,16.33-16.33,16.33Z"/></g><g><path class="cls-1" d="M1849.86,242.83c-5.87,0-10.64,4.76-10.64,10.64v2.99c0,74.08-37.52,110.65-121.4,110.65h-48.28c-6.6,0-11.95-5.35-11.95-11.95v-45.88c0-6.6,5.35-11.95,11.95-11.95h48.28c38.72,0,49.23-17.93,49.23-40.63v-3.23c0-5.87-4.76-10.64-10.64-10.64h-37.21c-5.56,0-10.73,2.64-14.17,7.01-11.28,14.36-27.97,24.64-53.66,29.74-7.47,1.48-14.49-4.08-14.49-11.69v-53.53c0-4.55,2.6-8.72,6.7-10.71,9.32-4.52,12.11-10.93,12.11-24.39v-10.76c0-6.6,5.35-11.95,11.95-11.95h49.11c4.82,0,8.72,3.91,8.72,8.72h0c0,4.82,3.91,8.72,8.72,8.72h115.67c5.87,0,10.64,4.76,10.64,10.64v47.55c0,5.87-4.76,10.64-10.64,10.64h0Z"/><path class="cls-1" d="M2270.13,307.12c-33.51,0-61.81-3.28-84.71-10.02-3.78-1.11-7.54,1.83-7.54,5.77v52.05c0,6.6-5.35,11.95-11.95,11.95h-49.47c-6.6,0-11.95-5.35-11.95-11.95V168.51c0-6.6,5.35-11.95,11.95-11.95h49.47c6.6,0,11.95,5.35,11.95,11.95v37.76c0,22.7,37.28,30.59,92.25,30.59h17.92c6.6,0,11.95,5.35,11.95,11.95v46.36c0,6.6-5.35,11.95-11.95,11.95h-17.92Z"/><g><path class="cls-1" d="M2066.65,196.94h-31.78c-6.6,0-11.95,5.35-11.95,11.95v48.52c0,10.28-1.67,18.88-5.26,26.04l-.71,1.2c-12.19,22.71-42.06,29.39-85.56,29.39h-17.44c-6.6,0-11.95,5.35-11.95,11.95v29.87c0,6.6,5.35,11.95,11.95,11.95h17.44c92.97,0,147.22-36.57,147.22-110.41v-48.52c0-6.6-5.35-11.95-11.95-11.95Z"/><path class="cls-1" d="M1943.8,271.16l-8.41-64.4c-.78-5.95-5.85-10.4-11.85-10.4h-31.28c-7.22,0-12.79,6.34-11.85,13.5l8.41,64.4c.78,5.95,5.85,10.4,11.85,10.4h31.28c7.22,0,12.78-6.34,11.85-13.5Z"/><path class="cls-1" d="M1955.32,274.25c.78,5.95,5.85,10.4,11.85,10.4h31.28c7.22,0,12.78-6.34,11.85-13.5l-8.41-64.4c-.78-5.95-5.85-10.4-11.85-10.4h-31.28c-7.22,0-12.79,6.34-11.85,13.5l8.41,64.4Z"/></g><path class="cls-1" d="M1421.75,366.87h-44.64c-7.36,0-12.98-6.59-11.8-13.86l14.02-86.51c.94-5.79,5.93-10.04,11.8-10.04h44.64c7.36,0,12.98,6.59,11.8,13.86l-14.02,86.51c-.94,5.79-5.93,10.04-11.8,10.04Z"/><path class="cls-1" d="M1566.4,366.87h44.64c7.36,0,12.98-6.59,11.8-13.86l-14.02-86.51c-.94-5.79-5.93-10.04-11.8-10.04h-44.64c-7.36,0-12.98,6.59-11.8,13.86l14.02,86.51c.94,5.79,5.93,10.04,11.8,10.04Z"/><path class="cls-1" d="M1534.91,176.87c-4.01,0-7.26-3.25-7.26-7.26v-5.8c0-4.01-3.25-7.26-7.26-7.26h-49.74c-5.61,0-10.16,4.55-10.16,10.16h0c0,5.61-4.55,10.16-10.16,10.16h-61.77c-5.61,0-10.16,4.55-10.16,10.16v44.7c0,5.61,4.55,10.16,10.16,10.16h61.77c5.61,0,10.16,4.55,10.16,10.16v104.67c0,5.61,4.55,10.16,10.16,10.16h46.84c5.61,0,10.16-4.55,10.16-10.16v-104.67c0-5.61,4.55-10.16,10.16-10.16h55.79c5.61,0,10.16-4.55,10.16-10.16v-11.55c0-4.8,1.78-9.54,5.34-12.76,8.13-7.35,12.89-18.35,11.62-30.44-1.69-16.14-13.36-28.75-29.35-31.49-19.24-3.29-36.29,8.74-40.97,25.88-.88,3.21-3.69,5.51-7.02,5.51h-8.47Zm50.11,15.16c-6.18,0-11.19-5.01-11.19-11.19s5.01-11.19,11.19-11.19,11.19,5.01,11.19,11.19-5.01,11.19-11.19,11.19Z"/></g></g></g></g></svg>
