<?xml version="1.0" encoding="UTF-8"?><svg id="_レイヤー_2" xmlns="http://www.w3.org/2000/svg" viewBox="0 0 694.03 87.43"><defs><style>.cls-1{fill:#21b8ce;}</style></defs><g id="_レイヤー_1-2"><g><path class="cls-1" d="M0,83.2c.56-3.86,.75-7.62,.75-12.99V19.29c0-4.8-.19-8.38-.75-12.89,4.24,.19,7.34,.28,12.89,.28h20.05c9.51,0,16.47,2.35,21.18,7.06,3.95,3.95,6.12,9.88,6.12,16.94,0,7.53-2.26,13.74-6.68,18.16-4.8,4.89-11.76,7.25-20.89,7.25H16.19v13.93c0,5.36,.19,9.41,.75,13.18H0ZM32.28,42.82c7.62,0,11.95-4.24,11.95-11.67,0-3.39-.94-6.21-2.82-8.09-1.98-2.16-4.89-3.11-9.13-3.11H16.19v22.87h16.09Z"/><path class="cls-1" d="M66.07,55.34c0-18.16,11.48-29.74,29.46-29.74s29.36,11.48,29.36,29.55-11.67,29.93-29.46,29.93-29.36-11.58-29.36-29.74Zm14.96-.19c0,11.11,5.46,17.88,14.49,17.88s14.4-6.59,14.4-17.6-5.27-17.98-14.31-17.98-14.59,6.68-14.59,17.69Z"/><path class="cls-1" d="M155.7,27.48c-.56,3.58-.75,7.06-.75,13.27v29.18c0,5.55,.19,9.32,.75,13.27h-16.66c.56-4.71,.75-7.62,.75-13.18v-29.36c0-5.74-.19-9.32-.75-13.18h16.66Zm-.09-20.8v12.99h-16.38V6.68h16.38Z"/><path class="cls-1" d="M172.79,83.2c.56-3.86,.75-7.62,.75-12.99V19.29c0-4.8-.19-8.38-.75-12.89,4.24,.19,7.34,.28,12.89,.28h20.05c9.51,0,16.47,2.35,21.18,7.06,3.95,3.95,6.12,9.88,6.12,16.94,0,7.53-2.26,13.74-6.68,18.16-4.8,4.89-11.76,7.25-20.89,7.25h-16.47v13.93c0,5.36,.19,9.41,.75,13.18h-16.94Zm32.28-40.38c7.62,0,11.95-4.24,11.95-11.67,0-3.39-.94-6.21-2.82-8.09-1.98-2.16-4.89-3.11-9.13-3.11h-16.09v22.87h16.09Z"/><path class="cls-1" d="M238.86,55.34c0-18.16,11.48-29.74,29.46-29.74s29.36,11.48,29.36,29.55-11.67,29.93-29.46,29.93-29.36-11.58-29.36-29.74Zm14.96-.19c0,11.11,5.46,17.88,14.49,17.88s14.4-6.59,14.4-17.6-5.27-17.98-14.31-17.98-14.59,6.68-14.59,17.69Z"/><path class="cls-1" d="M328.48,27.48c-.56,3.58-.75,7.06-.75,13.27v29.18c0,5.55,.19,9.32,.75,13.27h-16.66c.56-4.71,.75-7.62,.75-13.18v-29.36c0-5.74-.19-9.32-.75-13.18h16.66Zm-.09-20.8v12.99h-16.38V6.68h16.38Z"/><path class="cls-1" d="M377.05,40.28c-.28,1.13-.38,1.51-1.6,6.96-1.13,5.36-3.58,12.42-6.12,18.35-2.54,5.74-4.42,9.13-8.28,14.78-5.65-3.76-7.53-4.8-12.99-6.87,6.49-8.47,9.98-15.34,13.08-25.69,1.32-4.42,1.88-7.25,2.26-10.73l13.65,3.2Zm55.06-8.56c-3.86-.47-5.65-.56-13.55-.56h-19.67v42.92c0,4.99,.19,9.69,.47,12.89h-15.15c.38-3.58,.56-7.15,.56-12.89V31.15h-18.73c-7.53,0-9.32,.09-13.55,.47v-13.65c4.33,.56,6.02,.66,13.55,.66h18.73v-3.67c0-4.61-.19-7.62-.56-10.92h15.25c-.38,3.11-.56,6.4-.56,10.92v3.67h21.27c-2.54-1.98-3.95-4.99-3.95-8.19,0-5.74,4.71-10.45,10.45-10.45s10.35,4.61,10.35,10.45c0,3.58-1.79,6.87-4.89,8.85v12.42Zm-12.42,5.27c.66,3.2,1.41,5.65,3.11,10.45,4.14,11.39,7.62,18.26,12.8,25.41-6.78,3.58-8.19,4.42-12.89,7.62-7.34-12.61-10.63-20.71-15.15-37.18-.28-1.13-.47-1.69-1.04-3.01l13.18-3.29Zm2.35-26.64c0,2.54,2.07,4.61,4.61,4.61s4.52-2.07,4.52-4.61-2.07-4.52-4.52-4.52-4.61,2.07-4.61,4.52Z"/><path class="cls-1" d="M514.27,32.94c-.94,12.71-2.35,19.2-5.55,26.26-5.65,12.33-15.06,20.71-31.81,28.24-2.92-5.93-4.52-8-9.32-12.52,7.81-2.64,13.18-5.55,18.73-10.16,8.75-7.25,12.52-16.09,13.55-31.81h-20.89c-5.37,8.47-8.85,12.71-15.44,18.73-3.95-4.33-5.74-5.65-11.48-8.85,8.66-7.25,14.96-15.44,19.76-25.79,2.73-5.93,3.95-9.51,4.52-13.65l14.78,3.2q-.75,1.51-3.2,7.44c-1.41,3.39-1.51,3.48-2.82,6.12h38.59c6.49,0,8.85-.09,13.27-.66v14.02c-3.58-.38-8.28-.56-13.37-.56h-9.32Z"/><path class="cls-1" d="M560.86,25.98c4.14,7.72,6.02,12.42,9.32,23.06l-12.61,3.86c-2.54-10.26-4.33-15.15-8.47-23.53l11.76-3.39Zm54.49,1.13c-.56,1.6-.66,1.88-1.41,5.27-2.73,12.71-6.78,23.06-12.33,31.15-6.68,9.6-15.06,16.28-29.93,23.81-2.92-4.99-4.24-6.68-8.94-11.2,7.15-2.73,11.2-4.89,16.56-8.66,10.92-7.91,17.13-17.6,20.99-32.66,1.13-4.61,1.6-7.72,1.69-10.82l13.36,3.11Zm-34.07-4.99c4.99,9.51,6.78,13.74,9.13,22.31l-12.33,3.76c-1.79-7.44-4.8-15.53-8.47-22.87l11.67-3.2Z"/><path class="cls-1" d="M636.43,86.21c.47-3.58,.56-6.87,.56-13.27V17.22c0-6.68-.09-9.32-.56-12.61h15.34c-.47,3.58-.57,5.74-.57,12.61v14.31c14.59,4.99,27.48,10.82,42.82,19.76l-7.72,13.55c-8.38-5.74-20.71-12.42-31.53-17.13-1.79-.75-2.17-.94-3.58-1.69v27.11c0,6.02,.19,9.51,.57,13.08h-15.34Z"/></g></g></svg>